<svg width="99" height="100" viewBox="0 0 99 100" fill="none" xmlns="http://www.w3.org/2000/svg">
<path d="M80.0235 58.3605C90.3711 51.5967 93.7568 37.8 87.4948 26.9564C84.3571 21.5173 79.2852 17.6221 73.2174 15.9956C67.5957 14.4863 61.724 15.1035 56.556 17.7144L49.5 5.5L34.8535 30.867L1 89.4953H98L80.0235 58.3605ZM71.5582 22.2095C75.9687 23.3842 79.639 26.2162 81.925 30.1595C86.4181 37.9326 84.0841 47.7918 76.7974 52.7714L59.7783 23.2977C63.4448 21.5346 67.5803 21.1501 71.5582 22.2095ZM49.5 18.3739L86.845 83.0565H64.9944L38.5699 37.3039L49.4981 18.3758L49.5 18.3739ZM12.155 83.0565L34.8516 43.7543L57.5481 83.0565H12.155Z" fill="url(#paint0_linear_12901_82172)"/>
<defs>
<linearGradient id="paint0_linear_12901_82172" x1="12.6494" y1="82.7215" x2="88.2452" y2="41.2657" gradientUnits="userSpaceOnUse">
<stop stop-color="#FC3519"/>
<stop offset="1" stop-color="#F0D136"/>
</linearGradient>
</defs>
</svg>
